<svg width="230" height="116" viewBox="0 0 230 116" fill="none" xmlns="http://www.w3.org/2000/svg">
<g id="Group 17">
<g id="Group 5">
<circle id="Oval" cx="201.281" cy="29.0128" r="26.7187" stroke="#FFF7F0" stroke-width="4"/>
<rect id="Rectangle" x="115.125" y="0.294067" width="57.4375" height="57.4375" fill="#755CDE"/>
<g id="Group 7">
<g id="Group 3">
<rect id="Rectangle Copy 5" x="172.563" y="57.7316" width="7.17968" height="7.17968" fill="#030303"/>
<rect id="Rectangle Copy 6" x="197.691" y="57.7316" width="7.17968" height="7.17968" fill="#030303"/>
<rect id="Rectangle Copy 7" x="222.82" y="57.7316" width="7.17968" height="7.17968" fill="#030303"/>
</g>
<g id="Group 3 Copy">
<rect id="Rectangle Copy 5_2" x="172.563" y="82.8604" width="7.17968" height="7.17968" fill="#030303"/>
<rect id="Rectangle Copy 6_2" x="197.691" y="82.8604" width="7.17968" height="7.17968" fill="#030303"/>
<rect id="Rectangle Copy 7_2" x="222.82" y="82.8604" width="7.17968" height="7.17968" fill="#030303"/>
</g>
<g id="Group 3 Copy 2">
<rect id="Rectangle Copy 5_3" x="172.563" y="107.989" width="7.17968" height="7.17968" fill="#030303"/>
<rect id="Rectangle Copy 6_3" x="197.691" y="107.989" width="7.17968" height="7.17968" fill="#030303"/>
<rect id="Rectangle Copy 7_3" x="222.82" y="107.989" width="7.17968" height="7.17968" fill="#030303"/>
</g>
</g>
<path id="Path" fill-rule="evenodd" clip-rule="evenodd" d="M115.125 57.7316L172.563 115.169V57.7316H115.125Z" fill="#F39E9E"/>
</g>
<g id="Group 7_2">
<g id="Group 3_2">
<rect id="Rectangle Copy 5_4" x="57.6876" y="57.7316" width="7.17968" height="7.17968" fill="#030303"/>
<rect id="Rectangle Copy 6_4" x="82.8165" y="57.7316" width="7.17968" height="7.17968" fill="#030303"/>
<rect id="Rectangle Copy 7_4" x="107.945" y="57.7316" width="7.17968" height="7.17968" fill="#030303"/>
</g>
<g id="Group 3 Copy_2">
<rect id="Rectangle Copy 5_5" x="57.6876" y="100.81" width="7.17968" height="7.17968" fill="#030303"/>
<rect id="Rectangle Copy 6_5" x="82.8165" y="100.81" width="7.17968" height="7.17968" fill="#030303"/>
<rect id="Rectangle Copy 7_5" x="107.945" y="100.81" width="7.17968" height="7.17968" fill="#030303"/>
</g>
<g id="Group 3 Copy 2_2">
<rect id="Rectangle Copy 5_6" x="57.6876" y="107.989" width="7.17968" height="7.17968" fill="#030303"/>
<rect id="Rectangle Copy 6_6" x="82.8165" y="107.989" width="7.17968" height="7.17968" fill="#030303"/>
<rect id="Rectangle Copy 7_6" x="107.945" y="107.989" width="7.17968" height="7.17968" fill="#030303"/>
</g>
</g>
<g id="Group 7 Copy">
<g id="Group 3_3">
<rect id="Rectangle Copy 5_7" x="57.6876" y="0.294067" width="7.17968" height="7.17968" fill="#030303"/>
<rect id="Rectangle Copy 6_7" x="82.8165" y="0.294067" width="7.17968" height="7.17968" fill="#030303"/>
<rect id="Rectangle Copy 7_7" x="107.945" y="0.294067" width="7.17968" height="7.17968" fill="#030303"/>
</g>
<g id="Group 3 Copy_3">
<rect id="Rectangle Copy 5_8" x="57.6876" y="7.47375" width="7.17968" height="7.17968" fill="#030303"/>
<rect id="Rectangle Copy 6_8" x="82.8165" y="7.47375" width="7.17968" height="7.17968" fill="#030303"/>
<rect id="Rectangle Copy 7_8" x="107.945" y="7.47375" width="7.17968" height="7.17968" fill="#030303"/>
</g>
<g id="Group 3 Copy 2_3">
<rect id="Rectangle Copy 5_9" x="57.6876" y="50.5519" width="7.17968" height="7.17968" fill="#030303"/>
<rect id="Rectangle Copy 6_9" x="82.8165" y="50.5519" width="7.17968" height="7.17968" fill="#030303"/>
<rect id="Rectangle Copy 7_9" x="107.945" y="50.5519" width="7.17968" height="7.17968" fill="#030303"/>
</g>
</g>
<path id="Path Copy" fill-rule="evenodd" clip-rule="evenodd" d="M0.250122 57.7316L57.6876 115.169V57.7316H0.250122Z" fill="#61C4B7"/>
<path id="Path Copy_2" fill-rule="evenodd" clip-rule="evenodd" d="M57.6876 0.294067L0.250153 57.7315V0.294067H57.6876Z" fill="#FFF7F0"/>
</g>
</svg>
